<?xml version="1.0" encoding="utf-8"?>
<!-- Generator: Adobe Illustrator 24.0.0, SVG Export Plug-In . SVG Version: 6.00 Build 0)  -->
<svg version="1.1" id="Layer_1" xmlns="http://www.w3.org/2000/svg" xmlns:xlink="http://www.w3.org/1999/xlink" x="0px" y="0px"
	 viewBox="0 0 262 106" style="enable-background:new 0 0 262 106;" xml:space="preserve">
<style type="text/css">
	.st0{fill:#2A3383;}
</style>
<g>
	<polygon points="32.53,76.55 41.58,76.47 41.6,78.35 34.75,78.42 34.78,81.73 41.13,81.67 41.15,83.46 34.81,83.52 34.86,87.22 
		41.82,87.15 41.85,89.05 32.66,89.14 32.53,76.55 	"/>
	<polygon points="43.46,76.44 46.07,76.42 48.99,80.83 51.93,76.36 54.38,76.33 50.29,82.44 54.81,88.91 52.13,88.94 48.96,84.16 
		45.81,89.02 43.28,89.04 47.69,82.47 43.46,76.44 	"/>
	<path d="M64.74,80.25c-0.38-1.46-1.31-2.5-3.14-2.49c-2.7,0.04-3.81,2.4-3.78,4.82c0.01,2.43,1.17,4.79,3.86,4.77
		c1.99-0.03,3.02-1.5,3.2-3.33L67.01,84c-0.12,3.02-2.26,5.13-5.3,5.15c-3.78,0.03-6.06-2.94-6.11-6.54
		c-0.03-3.59,2.21-6.6,5.97-6.64c2.83-0.02,5.11,1.55,5.39,4.27L64.74,80.25L64.74,80.25z"/>
	<polygon points="70.12,76.17 79.17,76.09 79.2,77.99 72.35,78.05 72.35,81.37 78.71,81.29 78.72,83.09 72.41,83.15 72.44,86.84 
		79.41,86.77 79.41,88.69 70.23,88.76 70.12,76.17 	"/>
	<polygon points="82.62,76.05 91.68,75.96 91.72,77.87 84.84,77.93 84.89,81.23 91.21,81.18 91.24,82.98 84.9,83.03 84.93,86.73 
		91.94,86.66 91.96,88.55 82.77,88.64 82.62,76.05 	"/>
	<path d="M97.45,86.71l2.19-0.02c3.46-0.02,4.18-2.02,4.15-4.56c-0.03-2.51-0.76-4.47-4.24-4.44l-2.18,0.02L97.45,86.71L97.45,86.71
		z M95.14,75.92l5.23-0.04c3.87-0.03,5.6,2.78,5.63,6.25c0.03,3.46-1.62,6.32-5.51,6.34l-5.22,0.06L95.14,75.92L95.14,75.92z"/>
	<polygon points="117.2,83.36 112.4,75.77 114.94,75.73 118.33,81.34 121.56,75.66 124.01,75.63 119.38,83.33 119.47,88.27 
		117.25,88.31 117.2,83.36 	"/>
	<path d="M126.74,81.91c0.03,2.42,1.2,4.78,3.87,4.75c2.72-0.01,3.83-2.41,3.78-4.85c0-2.42-1.17-4.76-3.87-4.76
		C127.82,77.1,126.73,79.5,126.74,81.91L126.74,81.91z M136.62,81.81c0.06,3.61-2.18,6.63-5.96,6.67c-3.78,0.04-6.05-2.94-6.11-6.56
		c-0.01-3.58,2.18-6.62,5.95-6.65C134.28,75.23,136.59,78.22,136.62,81.81L136.62,81.81z"/>
	<path d="M139.22,75.49l2.18-0.02l0.09,7.33c0.01,1.7,0.15,3.64,3.02,3.63c2.83-0.04,2.94-2,2.94-3.7l-0.09-7.34l2.19-0.01
		l0.09,8.06c0.04,3.21-2.02,4.86-5.11,4.88c-3.13,0.04-5.19-1.56-5.23-4.78L139.22,75.49L139.22,75.49z"/>
	<path d="M155.25,81.07l3.61-0.05c1.39-0.01,2.15-0.7,2.1-2.02c0-1.61-1.02-1.9-2.19-1.88l-3.55,0.01L155.25,81.07L155.25,81.07z
		 M152.97,75.35l6-0.07c2.76-0.02,4.18,1.23,4.18,3.37c0.06,2.42-1.61,3.05-2.02,3.18l-0.01,0.05c0.76,0.07,1.88,0.64,1.93,2.65
		c0.01,1.47,0.2,2.78,0.69,3.29l-2.35,0.04c-0.32-0.53-0.34-1.24-0.35-1.85c0-2.32-0.51-3.32-2.56-3.32l-3.23,0.03l0.06,5.2
		l-2.21,0.01L152.97,75.35L152.97,75.35z"/>
	<polygon points="171.1,75.17 173.39,75.15 176.62,85.09 176.66,85.07 179.8,75.08 182.05,75.05 177.88,87.69 175.42,87.72 
		171.1,75.17 	"/>
	<polygon points="184.3,75.04 185.41,75.03 186.54,75.01 186.64,87.6 184.44,87.64 184.3,75.04 	"/>
	<path d="M191.56,83.36c0.03,1.94,1.45,2.68,3.18,2.67c1.96-0.03,2.69-0.98,2.69-1.93c-0.04-0.99-0.57-1.37-1.07-1.56
		c-0.89-0.31-2.03-0.54-3.77-0.99c-2.18-0.57-2.82-1.86-2.81-3.18c-0.04-2.51,2.29-3.72,4.56-3.75c2.63-0.01,4.85,1.37,4.88,3.99
		l-2.22,0.01c-0.12-1.61-1.24-2.2-2.75-2.18c-1.02,0.01-2.31,0.39-2.29,1.65c0.01,0.89,0.63,1.38,1.52,1.61
		c0.2,0.06,3.02,0.75,3.65,0.96c1.65,0.46,2.44,1.84,2.48,3.17c0.01,2.81-2.48,3.97-4.98,4c-2.85,0.01-5.22-1.33-5.32-4.44
		L191.56,83.36L191.56,83.36z"/>
	<polygon points="202.54,74.85 203.62,74.85 204.73,74.82 204.84,87.43 202.65,87.45 202.54,74.85 	"/>
	<path d="M209.87,81.06c0.04,2.43,1.18,4.81,3.89,4.77c2.67-0.02,3.78-2.4,3.77-4.84c-0.03-2.4-1.17-4.77-3.89-4.74
		C210.97,76.28,209.84,78.65,209.87,81.06L209.87,81.06z M219.73,80.97c0.04,3.6-2.18,6.63-5.96,6.67
		c-3.78,0.02-6.05-2.94-6.08-6.55c-0.04-3.59,2.18-6.6,5.95-6.63C217.42,74.4,219.7,77.39,219.73,80.97L219.73,80.97z"/>
	<polygon points="222.54,74.66 224.87,74.63 230.72,83.84 230.76,83.84 230.65,74.58 232.78,74.55 232.87,87.15 230.56,87.18 
		224.74,77.96 224.67,77.96 224.77,87.23 222.67,87.26 222.54,74.66 	"/>
	<path class="st0" d="M170.95,58.98c-8.6,0.09-12.01-7.84-12.08-15.89c-0.07-8.05,3.16-16.04,11.78-16.12
		c8.62-0.09,12.01,7.84,12.08,15.89C182.83,50.92,179.57,58.9,170.95,58.98L170.95,58.98z M170.57,18.87
		c-13.54,0.13-21.3,10.38-21.17,24.32c0.15,13.93,8.09,24.04,21.65,23.9c13.59-0.14,21.32-10.39,21.17-24.32
		C192.09,28.84,184.16,18.73,170.57,18.87L170.57,18.87z"/>
	<polygon class="st0" points="31.99,21.62 66,21.27 66.07,29.37 41.5,29.61 41.6,39.72 64.52,39.48 64.6,47.41 41.67,47.64 
		41.79,58.91 66.35,58.67 66.45,66.77 32.45,67.12 31.99,21.62 	"/>
	<path class="st0" d="M88.32,44.8l-8.56,0.07L79.6,29.25l0,0l8.56-0.09c5.93-0.06,9.92,2.48,9.96,7.71
		C98.21,42.12,94.25,44.74,88.32,44.8L88.32,44.8z M70.48,66.74l9.48-0.1l-0.13-13.66l8.56-0.08c11.57-0.11,19.3-5.87,19.2-16.12
		c-0.09-10.22-7.95-15.83-19.52-15.73l-18.01,0.17L70.48,66.74L70.48,66.74z"/>
	<path class="st0" d="M205.28,19.88l-9.71,0.11l0.45,45.49l9.29-0.1l-0.19-18.42c-0.04-5.03-0.29-9.53-0.51-13.47
		c1.13,2.27,4.5,9.07,6.08,11.64l12.27,20.08l9.7-0.09l-0.45-45.51l-9.25,0.1l0.16,17.98c0.07,5.04,0.31,9.97,0.51,13.92
		c-1.17-2.26-4.53-9.07-6.09-11.64L205.28,19.88L205.28,19.88z"/>
	<path class="st0" d="M118.47,51.19c0.06,6.12,5.17,8.47,10.58,8.41c3.56-0.02,9.26-1.13,9.25-5.84c-0.07-4.95-7.1-5.81-13.86-7.55
		c-7.11-1.81-13.95-4.4-14.04-12.82c-0.1-9.4,8.74-14.01,17.03-14.09c9.64-0.09,18.47,4,18.57,14.64l-9.47,0.09
		c-0.35-5.55-4.62-6.9-9.47-6.85c-3.23,0.02-7.26,1.4-7.22,5.28c0.01,3.52,2.35,4.05,13.91,6.92c3.36,0.78,13.88,2.7,13.98,13.14
		c0.09,8.42-6.47,14.78-18.99,14.92c-10.15,0.1-19.75-4.82-19.71-16.16L118.47,51.19L118.47,51.19z"/>
</g>
</svg>
